<svg width="16" height="16" viewBox="0 0 16 16" fill="none" xmlns="http://www.w3.org/2000/svg">
<path d="M9.99999 1.33334H3.99999C3.64637 1.33334 3.30723 1.47382 3.05718 1.72387C2.80713 1.97392 2.66666 2.31305 2.66666 2.66668V13.3333C2.66666 13.687 2.80713 14.0261 3.05718 14.2762C3.30723 14.5262 3.64637 14.6667 3.99999 14.6667H12C12.3536 14.6667 12.6928 14.5262 12.9428 14.2762C13.1928 14.0261 13.3333 13.687 13.3333 13.3333V4.66668L9.99999 1.33334Z" stroke="#45556C" stroke-width="1.33333" stroke-linecap="round" stroke-linejoin="round"/>
<path d="M9.33334 1.33334V4.00001C9.33334 4.35363 9.47382 4.69277 9.72387 4.94282C9.97392 5.19287 10.3131 5.33334 10.6667 5.33334H13.3333" stroke="#45556C" stroke-width="1.33333" stroke-linecap="round" stroke-linejoin="round"/>
<path d="M6.66668 6H5.33334" stroke="#45556C" stroke-width="1.33333" stroke-linecap="round" stroke-linejoin="round"/>
<path d="M10.6667 8.66669H5.33334" stroke="#45556C" stroke-width="1.33333" stroke-linecap="round" stroke-linejoin="round"/>
<path d="M10.6667 11.3333H5.33334" stroke="#45556C" stroke-width="1.33333" stroke-linecap="round" stroke-linejoin="round"/>
</svg>
