<svg width="32" height="32" viewBox="0 0 32 32" fill="none" xmlns="http://www.w3.org/2000/svg">
<path d="M16 29.3333C23.3638 29.3333 29.3333 23.3638 29.3333 16C29.3333 8.63619 23.3638 2.66666 16 2.66666C8.6362 2.66666 2.66667 8.63619 2.66667 16C2.66667 23.3638 8.6362 29.3333 16 29.3333Z" stroke="#2B7FFF" stroke-width="2.66667" stroke-linecap="round" stroke-linejoin="round"/>
<path d="M16 17.3333C18.2091 17.3333 20 15.5425 20 13.3333C20 11.1242 18.2091 9.33334 16 9.33334C13.7909 9.33334 12 11.1242 12 13.3333C12 15.5425 13.7909 17.3333 16 17.3333Z" stroke="#2B7FFF" stroke-width="2.66667" stroke-linecap="round" stroke-linejoin="round"/>
<path d="M9.33333 27.5493V25.3333C9.33333 24.6261 9.61428 23.9478 10.1144 23.4477C10.6145 22.9476 11.2928 22.6667 12 22.6667H20C20.7072 22.6667 21.3855 22.9476 21.8856 23.4477C22.3857 23.9478 22.6667 24.6261 22.6667 25.3333V27.5493" stroke="#2B7FFF" stroke-width="2.66667" stroke-linecap="round" stroke-linejoin="round"/>
</svg>
