<svg width="16" height="16" viewBox="0 0 16 16" fill="none" xmlns="http://www.w3.org/2000/svg">
<path d="M7.99998 14.6667C11.6819 14.6667 14.6666 11.6819 14.6666 8C14.6666 4.3181 11.6819 1.33334 7.99998 1.33334C4.31808 1.33334 1.33331 4.3181 1.33331 8C1.33331 11.6819 4.31808 14.6667 7.99998 14.6667Z" stroke="#EC003F" stroke-width="1.33333" stroke-linecap="round" stroke-linejoin="round"/>
<path d="M8 8.66666C9.10457 8.66666 10 7.77123 10 6.66666C10 5.56209 9.10457 4.66666 8 4.66666C6.89543 4.66666 6 5.56209 6 6.66666C6 7.77123 6.89543 8.66666 8 8.66666Z" stroke="#EC003F" stroke-width="1.33333" stroke-linecap="round" stroke-linejoin="round"/>
<path d="M4.66669 13.7747V12.6667C4.66669 12.313 4.80716 11.9739 5.05721 11.7239C5.30726 11.4738 5.6464 11.3333 6.00002 11.3333H10C10.3536 11.3333 10.6928 11.4738 10.9428 11.7239C11.1929 11.9739 11.3334 12.313 11.3334 12.6667V13.7747" stroke="#EC003F" stroke-width="1.33333" stroke-linecap="round" stroke-linejoin="round"/>
</svg>
