<svg width="16" height="16" viewBox="0 0 16 16" fill="none" xmlns="http://www.w3.org/2000/svg">
<path d="M10 1.33333H4.00001C3.64638 1.33333 3.30724 1.47381 3.0572 1.72386C2.80715 1.9739 2.66667 2.31304 2.66667 2.66667V13.3333C2.66667 13.687 2.80715 14.0261 3.0572 14.2761C3.30724 14.5262 3.64638 14.6667 4.00001 14.6667H12C12.3536 14.6667 12.6928 14.5262 12.9428 14.2761C13.1929 14.0261 13.3333 13.687 13.3333 13.3333V4.66667L10 1.33333Z" stroke="#45556C" stroke-width="1.33333" stroke-linecap="round" stroke-linejoin="round"/>
<path d="M9.33333 1.33333V4C9.33333 4.35362 9.4738 4.69276 9.72385 4.94281C9.9739 5.19286 10.313 5.33333 10.6667 5.33333H13.3333" stroke="#45556C" stroke-width="1.33333" stroke-linecap="round" stroke-linejoin="round"/>
<path d="M6.66666 6H5.33333" stroke="#45556C" stroke-width="1.33333" stroke-linecap="round" stroke-linejoin="round"/>
<path d="M10.6667 8.66667H5.33333" stroke="#45556C" stroke-width="1.33333" stroke-linecap="round" stroke-linejoin="round"/>
<path d="M10.6667 11.3333H5.33333" stroke="#45556C" stroke-width="1.33333" stroke-linecap="round" stroke-linejoin="round"/>
</svg>
